<svg width="96" height="96" xmlns="http://www.w3.org/2000/svg" xmlns:xlink="http://www.w3.org/1999/xlink" xml:space="preserve" overflow="hidden"><g transform="translate(-479 -98)"><path d="M564.006 113 490.006 113C487.797 113 486.006 114.791 486.006 117L486.006 175C486.006 177.209 487.797 179 490.006 179L564.006 179C566.215 179 568.006 177.209 568.006 175L568.006 117C568.006 114.791 566.215 113 564.006 113ZM562.006 137 553.006 137 553.006 135C555.215 135 557.006 133.209 557.006 131 557.006 128.791 555.215 127 553.006 127L553.006 119 562.006 119ZM549.006 151 549.006 163C546.797 163 545.006 164.791 545.006 167 545.006 169.209 546.797 171 549.006 171L549.006 173 537.006 173 537.006 171C539.215 171 541.006 169.209 541.006 167 541.006 164.791 539.215 163 537.006 163L537.006 161C539.215 161 541.006 159.209 541.006 157 541.006 154.791 539.215 153 537.006 153L537.006 141 549.006 141 549.006 143C546.797 143 545.006 144.791 545.006 147 545.006 149.209 546.797 151 549.006 151ZM505.006 163 505.006 161C507.215 161 509.006 159.209 509.006 157 509.006 154.791 507.215 153 505.006 153L505.006 141 517.006 141 517.006 143C514.797 143 513.006 144.791 513.006 147 513.006 149.209 514.797 151 517.006 151L517.006 153C514.797 153 513.006 154.791 513.006 157 513.006 159.209 514.797 161 517.006 161L517.006 173 505.006 173 505.006 171C507.215 171 509.006 169.209 509.006 167 509.006 164.791 507.215 163 505.006 163ZM505.006 121 505.006 119 517.006 119 517.006 127C514.797 127 513.006 128.791 513.006 131 513.006 133.209 514.797 135 517.006 135L517.006 137 505.006 137 505.006 129C507.215 129 509.006 127.209 509.006 125 509.006 122.791 507.215 121 505.006 121ZM533.006 129 533.006 137 521.006 137 521.006 135C523.215 135 525.006 133.209 525.006 131 525.006 128.791 523.215 127 521.006 127L521.006 119 533.006 119 533.006 121C530.797 121 529.006 122.791 529.006 125 529.006 127.209 530.797 129 533.006 129ZM521.006 161C523.215 161 525.006 159.209 525.006 157 525.006 154.791 523.215 153 521.006 153L521.006 151C523.215 151 525.006 149.209 525.006 147 525.006 144.791 523.215 143 521.006 143L521.006 141 533.006 141 533.006 153C530.797 153 529.006 154.791 529.006 157 529.006 159.209 530.797 161 533.006 161L533.006 163C530.797 163 529.006 164.791 529.006 167 529.006 169.209 530.797 171 533.006 171L533.006 173 521.006 173ZM537.006 137 537.006 129C539.215 129 541.006 127.209 541.006 125 541.006 122.791 539.215 121 537.006 121L537.006 119 549.006 119 549.006 127C546.797 127 545.006 128.791 545.006 131 545.006 133.209 546.797 135 549.006 135L549.006 137ZM501.006 119 501.006 121C498.797 121 497.006 122.791 497.006 125 497.006 127.209 498.797 129 501.006 129L501.006 137 492.006 137 492.006 119ZM492.006 141 501.006 141 501.006 153C498.797 153 497.006 154.791 497.006 157 497.006 159.209 498.797 161 501.006 161L501.006 163C498.797 163 497.006 164.791 497.006 167 497.006 169.209 498.797 171 501.006 171L501.006 173 492.006 173ZM553.006 173 553.006 171C555.215 171 557.006 169.209 557.006 167 557.006 164.791 555.215 163 553.006 163L553.006 151C555.215 151 557.006 149.209 557.006 147 557.006 144.791 555.215 143 553.006 143L553.006 141 562.006 141 562.006 173Z" fill="#FFFFFF"/></g></svg>