<svg width="96" height="96" xmlns="http://www.w3.org/2000/svg" xmlns:xlink="http://www.w3.org/1999/xlink" xml:space="preserve" overflow="hidden"><g transform="translate(-357 -98)"><path d="M437 164C436.948 161.495 435.773 159.145 433.8 157.6 429.4 154 423.8 151.6 418.2 150 413.922 148.69 409.474 148.016 405 148 400.531 148.077 396.092 148.75 391.8 150 386.207 151.632 380.932 154.202 376.2 157.6 374.227 159.145 373.052 161.495 373 164L373 180 437 180Z" fill="#FFFFFF"/><path d="M402 123.75C404.6 122.22 411 117.28 411 117.28L411 117.28C412.01 117.368 412.971 117.754 413.76 118.39 415.681 119.739 417.307 121.464 418.54 123.46 419.65 125.12 420.6 126.46 420.89 126.86L420.89 126.86 421 127 421 127C421.5 126 421.48 123.21 421.13 120.67 420.64 117.17 420.24 116.13 418 114.25 416.573 112.956 414.668 112.322 412.75 112.5 410.148 110.481 407.013 109.264 403.73 109 398.73 108.82 393.27 111.43 390.95 114.49 387.44 119.09 387.83 122.09 387.83 123.16 387.83 124.23 386.6 126.09 387.46 126.09 388.02 126.09 388.57 126.09 389.13 126.09L389.13 126.09C392.3 126 398.77 125.65 402 123.75Z" fill="#FFFFFF"/><path d="M419.42 128.17C419.37 128.1 418.27 126.57 416.93 124.58 415.829 122.775 414.369 121.216 412.64 120 412.303 119.755 411.937 119.553 411.55 119.4 409.77 120.75 405.19 124.19 403.01 125.46 399.55 127.46 393.24 127.99 389.01 128.08 389.12 136.916 396.371 143.99 405.207 143.88 413.099 143.783 419.741 137.944 420.85 130.13Z" fill="#FFFFFF"/></g></svg>