<svg width="96" height="96" xmlns="http://www.w3.org/2000/svg" xmlns:xlink="http://www.w3.org/1999/xlink" xml:space="preserve" overflow="hidden"><g transform="translate(-357 -423)"><path d="M437 489C436.948 486.495 435.773 484.145 433.8 482.6 429.4 479 423.8 476.6 418.2 475 413.922 473.69 409.474 473.017 405 473 400.531 473.077 396.092 473.75 391.8 475 386.207 476.632 380.932 479.202 376.2 482.6 374.227 484.145 373.052 486.495 373 489L373 505 437 505Z" fill="#079184"/><path d="M402 448.75C404.6 447.22 411 442.28 411 442.28L411 442.28C412.01 442.367 412.971 442.754 413.76 443.39 415.681 444.738 417.307 446.464 418.54 448.46 419.65 450.12 420.6 451.46 420.89 451.86L420.89 451.86 421 452 421 452C421.5 451 421.48 448.21 421.13 445.67 420.64 442.17 420.24 441.13 418 439.25 416.573 437.957 414.668 437.322 412.75 437.5 410.148 435.481 407.013 434.264 403.73 434 398.73 433.82 393.27 436.43 390.95 439.49 387.44 444.09 387.83 447.09 387.83 448.16 387.83 449.23 386.6 451.09 387.46 451.09 388.02 451.09 388.57 451.09 389.13 451.09L389.13 451.09C392.3 451 398.77 450.65 402 448.75Z" fill="#079184"/><path d="M419.42 453.17C419.37 453.1 418.27 451.57 416.93 449.58 415.829 447.775 414.369 446.216 412.64 445 412.303 444.755 411.937 444.553 411.55 444.4 409.77 445.75 405.19 449.19 403.01 450.46 399.55 452.46 393.24 452.99 389.01 453.08 389.12 461.916 396.371 468.99 405.207 468.88 413.099 468.783 419.741 462.944 420.85 455.13Z" fill="#079184"/></g></svg>