<svg width="96" height="96" xmlns="http://www.w3.org/2000/svg" xmlns:xlink="http://www.w3.org/1999/xlink" xml:space="preserve" overflow="hidden"><g transform="translate(-357 -257)"><path d="M437 323C436.948 320.495 435.773 318.145 433.8 316.6 429.4 313 423.8 310.6 418.2 309 413.922 307.69 409.474 307.017 405 307 400.531 307.077 396.092 307.75 391.8 309 386.207 310.632 380.932 313.202 376.2 316.6 374.227 318.145 373.052 320.495 373 323L373 339 437 339Z"/><path d="M402 282.75C404.6 281.22 411 276.28 411 276.28L411 276.28C412.01 276.367 412.971 276.754 413.76 277.39 415.681 278.738 417.307 280.464 418.54 282.46 419.65 284.12 420.6 285.46 420.89 285.86L420.89 285.86 421 286 421 286C421.5 285 421.48 282.21 421.13 279.67 420.64 276.17 420.24 275.13 418 273.25 416.573 271.957 414.668 271.322 412.75 271.5 410.148 269.481 407.013 268.264 403.73 268 398.73 267.82 393.27 270.43 390.95 273.49 387.44 278.09 387.83 281.09 387.83 282.16 387.83 283.23 386.6 285.09 387.46 285.09 388.02 285.09 388.57 285.09 389.13 285.09L389.13 285.09C392.3 285 398.77 284.65 402 282.75Z"/><path d="M419.42 287.17C419.37 287.1 418.27 285.57 416.93 283.58 415.829 281.775 414.369 280.216 412.64 279 412.303 278.755 411.937 278.553 411.55 278.4 409.77 279.75 405.19 283.19 403.01 284.46 399.55 286.46 393.24 286.99 389.01 287.08 389.12 295.916 396.371 302.99 405.207 302.88 413.099 302.783 419.741 296.944 420.85 289.13Z"/></g></svg>