<svg width="96" height="96" xmlns="http://www.w3.org/2000/svg" xmlns:xlink="http://www.w3.org/1999/xlink" xml:space="preserve" overflow="hidden"><g transform="translate(-479 -257)"><path d="M564.006 272 490.006 272C487.797 272 486.006 273.791 486.006 276L486.006 334C486.006 336.209 487.797 338 490.006 338L564.006 338C566.215 338 568.006 336.209 568.006 334L568.006 276C568.006 273.791 566.215 272 564.006 272ZM562.006 296 553.006 296 553.006 294C555.215 294 557.006 292.209 557.006 290 557.006 287.791 555.215 286 553.006 286L553.006 278 562.006 278ZM549.006 310 549.006 322C546.797 322 545.006 323.791 545.006 326 545.006 328.209 546.797 330 549.006 330L549.006 332 537.006 332 537.006 330C539.215 330 541.006 328.209 541.006 326 541.006 323.791 539.215 322 537.006 322L537.006 320C539.215 320 541.006 318.209 541.006 316 541.006 313.791 539.215 312 537.006 312L537.006 300 549.006 300 549.006 302C546.797 302 545.006 303.791 545.006 306 545.006 308.209 546.797 310 549.006 310ZM505.006 322 505.006 320C507.215 320 509.006 318.209 509.006 316 509.006 313.791 507.215 312 505.006 312L505.006 300 517.006 300 517.006 302C514.797 302 513.006 303.791 513.006 306 513.006 308.209 514.797 310 517.006 310L517.006 312C514.797 312 513.006 313.791 513.006 316 513.006 318.209 514.797 320 517.006 320L517.006 332 505.006 332 505.006 330C507.215 330 509.006 328.209 509.006 326 509.006 323.791 507.215 322 505.006 322ZM505.006 280 505.006 278 517.006 278 517.006 286C514.797 286 513.006 287.791 513.006 290 513.006 292.209 514.797 294 517.006 294L517.006 296 505.006 296 505.006 288C507.215 288 509.006 286.209 509.006 284 509.006 281.791 507.215 280 505.006 280ZM533.006 288 533.006 296 521.006 296 521.006 294C523.215 294 525.006 292.209 525.006 290 525.006 287.791 523.215 286 521.006 286L521.006 278 533.006 278 533.006 280C530.797 280 529.006 281.791 529.006 284 529.006 286.209 530.797 288 533.006 288ZM521.006 320C523.215 320 525.006 318.209 525.006 316 525.006 313.791 523.215 312 521.006 312L521.006 310C523.215 310 525.006 308.209 525.006 306 525.006 303.791 523.215 302 521.006 302L521.006 300 533.006 300 533.006 312C530.797 312 529.006 313.791 529.006 316 529.006 318.209 530.797 320 533.006 320L533.006 322C530.797 322 529.006 323.791 529.006 326 529.006 328.209 530.797 330 533.006 330L533.006 332 521.006 332ZM537.006 296 537.006 288C539.215 288 541.006 286.209 541.006 284 541.006 281.791 539.215 280 537.006 280L537.006 278 549.006 278 549.006 286C546.797 286 545.006 287.791 545.006 290 545.006 292.209 546.797 294 549.006 294L549.006 296ZM501.006 278 501.006 280C498.797 280 497.006 281.791 497.006 284 497.006 286.209 498.797 288 501.006 288L501.006 296 492.006 296 492.006 278ZM492.006 300 501.006 300 501.006 312C498.797 312 497.006 313.791 497.006 316 497.006 318.209 498.797 320 501.006 320L501.006 322C498.797 322 497.006 323.791 497.006 326 497.006 328.209 498.797 330 501.006 330L501.006 332 492.006 332ZM553.006 332 553.006 330C555.215 330 557.006 328.209 557.006 326 557.006 323.791 555.215 322 553.006 322L553.006 310C555.215 310 557.006 308.209 557.006 306 557.006 303.791 555.215 302 553.006 302L553.006 300 562.006 300 562.006 332Z"/></g></svg>