<svg width="96" height="96" xmlns="http://www.w3.org/2000/svg" xmlns:xlink="http://www.w3.org/1999/xlink" xml:space="preserve" overflow="hidden"><g transform="translate(-479 -423)"><path d="M564.006 438 490.006 438C487.797 438 486.006 439.791 486.006 442L486.006 500C486.006 502.209 487.797 504 490.006 504L564.006 504C566.215 504 568.006 502.209 568.006 500L568.006 442C568.006 439.791 566.215 438 564.006 438ZM562.006 462 553.006 462 553.006 460C555.215 460 557.006 458.209 557.006 456 557.006 453.791 555.215 452 553.006 452L553.006 444 562.006 444ZM549.006 476 549.006 488C546.797 488 545.006 489.791 545.006 492 545.006 494.209 546.797 496 549.006 496L549.006 498 537.006 498 537.006 496C539.215 496 541.006 494.209 541.006 492 541.006 489.791 539.215 488 537.006 488L537.006 486C539.215 486 541.006 484.209 541.006 482 541.006 479.791 539.215 478 537.006 478L537.006 466 549.006 466 549.006 468C546.797 468 545.006 469.791 545.006 472 545.006 474.209 546.797 476 549.006 476ZM505.006 488 505.006 486C507.215 486 509.006 484.209 509.006 482 509.006 479.791 507.215 478 505.006 478L505.006 466 517.006 466 517.006 468C514.797 468 513.006 469.791 513.006 472 513.006 474.209 514.797 476 517.006 476L517.006 478C514.797 478 513.006 479.791 513.006 482 513.006 484.209 514.797 486 517.006 486L517.006 498 505.006 498 505.006 496C507.215 496 509.006 494.209 509.006 492 509.006 489.791 507.215 488 505.006 488ZM505.006 446 505.006 444 517.006 444 517.006 452C514.797 452 513.006 453.791 513.006 456 513.006 458.209 514.797 460 517.006 460L517.006 462 505.006 462 505.006 454C507.215 454 509.006 452.209 509.006 450 509.006 447.791 507.215 446 505.006 446ZM533.006 454 533.006 462 521.006 462 521.006 460C523.215 460 525.006 458.209 525.006 456 525.006 453.791 523.215 452 521.006 452L521.006 444 533.006 444 533.006 446C530.797 446 529.006 447.791 529.006 450 529.006 452.209 530.797 454 533.006 454ZM521.006 486C523.215 486 525.006 484.209 525.006 482 525.006 479.791 523.215 478 521.006 478L521.006 476C523.215 476 525.006 474.209 525.006 472 525.006 469.791 523.215 468 521.006 468L521.006 466 533.006 466 533.006 478C530.797 478 529.006 479.791 529.006 482 529.006 484.209 530.797 486 533.006 486L533.006 488C530.797 488 529.006 489.791 529.006 492 529.006 494.209 530.797 496 533.006 496L533.006 498 521.006 498ZM537.006 462 537.006 454C539.215 454 541.006 452.209 541.006 450 541.006 447.791 539.215 446 537.006 446L537.006 444 549.006 444 549.006 452C546.797 452 545.006 453.791 545.006 456 545.006 458.209 546.797 460 549.006 460L549.006 462ZM501.006 444 501.006 446C498.797 446 497.006 447.791 497.006 450 497.006 452.209 498.797 454 501.006 454L501.006 462 492.006 462 492.006 444ZM492.006 466 501.006 466 501.006 478C498.797 478 497.006 479.791 497.006 482 497.006 484.209 498.797 486 501.006 486L501.006 488C498.797 488 497.006 489.791 497.006 492 497.006 494.209 498.797 496 501.006 496L501.006 498 492.006 498ZM553.006 498 553.006 496C555.215 496 557.006 494.209 557.006 492 557.006 489.791 555.215 488 553.006 488L553.006 476C555.215 476 557.006 474.209 557.006 472 557.006 469.791 555.215 468 553.006 468L553.006 466 562.006 466 562.006 498Z" fill="#E0C133"/></g></svg>